<?xml version="1.0" encoding="UTF-8" standalone="no"?>
<svg
   xmlns:dc="http://purl.org/dc/elements/1.1/"
   xmlns:cc="http://creativecommons.org/ns#"
   xmlns:rdf="http://www.w3.org/1999/02/22-rdf-syntax-ns#"
   xmlns:svg="http://www.w3.org/2000/svg"
   xmlns="http://www.w3.org/2000/svg"
   xmlns:sodipodi="http://sodipodi.sourceforge.net/DTD/sodipodi-0.dtd"
   xmlns:inkscape="http://www.inkscape.org/namespaces/inkscape"
   sodipodi:docname="logo.svg"
   inkscape:version="1.0 (4035a4fb49, 2020-05-01)"
   id="svg8"
   version="1.1"
   viewBox="0 0 29.300001 6.3555556"
   height="6.5mm"
   width="29.300001mm">
  <defs
     id="defs2" />
  <sodipodi:namedview
     lock-margins="false"
     fit-margin-bottom="1"
     fit-margin-right="1"
     fit-margin-left="1"
     fit-margin-top="1"
     inkscape:snap-nodes="true"
     inkscape:window-maximized="1"
     inkscape:window-y="-8"
     inkscape:window-x="1912"
     inkscape:window-height="1017"
     inkscape:window-width="1920"
     inkscape:snap-midpoints="true"
     inkscape:snap-smooth-nodes="true"
     inkscape:snap-intersection-paths="true"
     inkscape:object-paths="true"
     showgrid="false"
     inkscape:document-rotation="0"
     inkscape:current-layer="layer2"
     inkscape:document-units="mm"
     inkscape:cy="23.46095"
     inkscape:cx="71.394173"
     inkscape:zoom="2.8284271"
     inkscape:pageshadow="2"
     inkscape:pageopacity="0.0"
     borderopacity="1.0"
     bordercolor="#666666"
     pagecolor="#ffffff"
     id="base" />
  <metadata
     id="metadata5">
    <rdf:RDF>
      <cc:Work
         rdf:about="">
        <dc:format>image/svg+xml</dc:format>
        <dc:type
           rdf:resource="http://purl.org/dc/dcmitype/StillImage" />
        <dc:title></dc:title>
      </cc:Work>
    </rdf:RDF>
  </metadata>
  <g
     transform="translate(0.25000005,2.2000002)"
     inkscape:label="logo"
     id="layer2"
     inkscape:groupmode="layer">
    <g
       style="display:inline"
       inkscape:label="logo"
       id="g959">
      <path
         id="path945"
         style="fill:none;stroke:#000000;stroke-width:0.5;stroke-linecap:round;stroke-linejoin:round;stroke-miterlimit:4;stroke-dasharray:none;stroke-opacity:1"
         d="M 26.2,1.15 27.800001,0 m 0,2 L 26.6,0.86250018 M 26.2,-0.99999997 V 2"
         inkscape:label="k"
         sodipodi:nodetypes="cccccc" />
      <path
         id="path938"
         style="fill:none;stroke:#000000;stroke-width:0.5;stroke-linecap:round;stroke-linejoin:round;stroke-miterlimit:4;stroke-dasharray:none;stroke-opacity:1"
         d="M 24.5,1.85 24.1,2 H 23.3 L 22.95,1.85 22.75,1.7 22.55,1.4 V 1 M 24.5,0.15 24.1,0 h -0.8 l -0.35,0.15 -0.2,0.15 -0.2,0.3 V 1"
         inkscape:label="c" />
      <path
         id="path923"
         style="fill:none;stroke:#000000;stroke-width:0.5;stroke-linecap:round;stroke-linejoin:round;stroke-miterlimit:4;stroke-dasharray:none;stroke-opacity:1"
         d="M 20.85,1.85 20.35,2 H 19.5 L 19.1,1.85 18.95,1.55 V 1.3 L 19.1,1 19.5,0.85 h 0.85 L 20.850001,0.7 M 20.85,2 V 0.45 L 20.65,0.15 20.3,0 h -0.75 l -0.4,0.15"
         inkscape:label="a" />
      <path
         inkscape:label="r"
         id="path915"
         style="display:inline;fill:none;stroke:#000000;stroke-width:0.5;stroke-linecap:round;stroke-linejoin:round;stroke-miterlimit:4;stroke-dasharray:none;stroke-opacity:1"
         d="M 16.65,0.60000001 16.85,0.3 17.05,0.15000001 17.45,0 H 17.8 M 16.65,2 V 0" />
      <path
         inkscape:label="o"
         d="m 13.9,2 h 0.25 l 0.4,-0.15 0.2,-0.15 0.2,-0.3 c 0,0 0,-0.4 0,-0.4 M 13.9,2 H 13.65 L 13.25,1.85 13.05,1.7 12.85,1.4 c 0,0 0,-0.4 0,-0.4 M 13.9,0 14.15,2e-8 14.55,0.15 l 0.2,0.15 0.2,0.3 c 0,0 0,0.4 0,0.4 M 13.9,0 13.65,2e-8 13.25,0.15 13.05,0.3 12.85,0.6 c 0,0 0,0.4 0,0.4"
         style="fill:none;stroke:#000000;stroke-width:0.5;stroke-linecap:round;stroke-linejoin:round;stroke-miterlimit:4;stroke-dasharray:none;stroke-opacity:1"
         id="path909" />
      <path
         id="path902"
         style="fill:none;stroke:#000000;stroke-width:0.5;stroke-linecap:round;stroke-linejoin:round;stroke-miterlimit:4;stroke-dasharray:none;stroke-opacity:1"
         d="M 10.7,-1.0000001 V 1.55 l 0.2,0.3 0.4,0.15 h 0.4 M 10.15,0 h 1.55"
         inkscape:label="t" />
      <path
         id="path891"
         style="fill:none;stroke:#000000;stroke-width:0.5;stroke-linecap:round;stroke-linejoin:round;stroke-miterlimit:4;stroke-dasharray:none;stroke-opacity:1"
         d="M 7.95,2 H 8.2 L 8.6,1.85 8.8,1.7 9,1.4 c 0,0 10e-8,-0.4 10e-8,-0.4 M 7.95,2 H 7.7 L 7.3,1.85 7.1,1.7 6.9,1.4 c 0,0 -1e-7,-0.4 -1e-7,-0.4 M 7.95,0 8.2,2e-8 8.6,0.15 8.8,0.3 9,0.6 c 0,0 10e-8,0.4 10e-8,0.4 M 7.95,0 7.7,2e-8 7.3,0.15 7.1,0.3 6.9,0.6 c 0,0 -1e-7,0.4 -1e-7,0.4"
         inkscape:label="o" />
      <path
         d="M 4.5999999,0.6 4.8,0.29999999 5,0.15 5.4,-1e-8 H 5.7499999 M 4.5999997,2 V -1e-8"
         style="display:inline;fill:none;stroke:#000000;stroke-width:0.5;stroke-linecap:round;stroke-linejoin:round;stroke-miterlimit:4;stroke-dasharray:none;stroke-opacity:1"
         id="path862"
         inkscape:label="r" />
      <path
         id="path852"
         style="fill:none;stroke:#000000;stroke-width:0.5;stroke-linecap:round;stroke-linejoin:round;stroke-miterlimit:4;stroke-dasharray:none;stroke-opacity:1"
         d="M 1,1.85 1.4,2 H 2.15 L 2.55,1.85 2.8,1.7 2.9,1.4 2.8999999,1 M 1,0.15 1.4,0 H 2.15 L 2.55,0.15 2.8,0.3 2.9,0.6 2.8999999,1 M 0.99999995,0 v 3"
         inkscape:label="p" />
    </g>
  </g>
  <g
     transform="translate(0.25000005,2.2000002)"
     style="display:none"
     id="layer1"
     inkscape:groupmode="layer"
     inkscape:label="help">
    <path
       sodipodi:nodetypes="cc"
       id="path833"
       d="M 0,0 H 28.8"
       style="fill:none;stroke:#00ff00;stroke-width:0.0999999;stroke-linecap:butt;stroke-linejoin:miter;stroke-miterlimit:4;stroke-dasharray:none;stroke-opacity:1" />
    <path
       style="fill:none;stroke:#00ff00;stroke-width:0.0999999;stroke-linecap:butt;stroke-linejoin:miter;stroke-miterlimit:4;stroke-dasharray:none;stroke-opacity:1"
       d="M 0,2 H 28.8"
       id="path835"
       sodipodi:nodetypes="cc" />
    <path
       sodipodi:nodetypes="cc"
       id="path837"
       d="M 0,3 H 28.8"
       style="fill:none;stroke:#00ff00;stroke-width:0.0999999;stroke-linecap:butt;stroke-linejoin:miter;stroke-miterlimit:4;stroke-dasharray:none;stroke-opacity:1" />
    <path
       style="fill:none;stroke:#ffff00;stroke-width:0.0999999;stroke-linecap:butt;stroke-linejoin:miter;stroke-miterlimit:4;stroke-dasharray:none;stroke-opacity:1"
       d="M 0,0.6 H 28.8"
       id="path839"
       sodipodi:nodetypes="cc" />
    <path
       style="fill:none;stroke:#ff8000;stroke-width:0.0999999;stroke-linecap:butt;stroke-linejoin:miter;stroke-miterlimit:4;stroke-dasharray:none;stroke-opacity:1"
       d="M 0,1 H 28.8"
       id="path841"
       sodipodi:nodetypes="cc" />
    <path
       style="fill:none;stroke:#00ff00;stroke-width:0.0999998;stroke-linecap:butt;stroke-linejoin:miter;stroke-miterlimit:4;stroke-dasharray:none;stroke-opacity:1"
       d="M 0.99999995,-0.99999999 V 2.9999999"
       id="path843"
       sodipodi:nodetypes="cc" />
    <path
       sodipodi:nodetypes="cc"
       id="path850"
       d="M 4.5999999,-0.99999999 V 2.9999999"
       style="fill:none;stroke:#00ff00;stroke-width:0.0999998;stroke-linecap:butt;stroke-linejoin:miter;stroke-miterlimit:4;stroke-dasharray:none;stroke-opacity:1" />
    <path
       style="fill:none;stroke:#00ff00;stroke-width:0.0999998;stroke-linecap:butt;stroke-linejoin:miter;stroke-miterlimit:4;stroke-dasharray:none;stroke-opacity:1"
       d="M 2.8999999,-0.99999999 V 2.9999999"
       id="path856"
       sodipodi:nodetypes="cc" />
    <path
       style="fill:none;stroke:#00ff00;stroke-width:0.0999998;stroke-linecap:butt;stroke-linejoin:miter;stroke-miterlimit:4;stroke-dasharray:none;stroke-opacity:1"
       d="M 5.7499999,-0.99999999 V 2.9999999"
       id="path858"
       sodipodi:nodetypes="cc" />
    <path
       sodipodi:nodetypes="cc"
       id="path884"
       d="M 6.8999999,-0.99999999 V 2.9999999"
       style="fill:none;stroke:#00ff00;stroke-width:0.0999998;stroke-linecap:butt;stroke-linejoin:miter;stroke-miterlimit:4;stroke-dasharray:none;stroke-opacity:1" />
    <path
       style="fill:none;stroke:#00ff00;stroke-width:0.0999998;stroke-linecap:butt;stroke-linejoin:miter;stroke-miterlimit:4;stroke-dasharray:none;stroke-opacity:1"
       d="M 8.9999999,-0.99999999 V 2.9999999"
       id="path886"
       sodipodi:nodetypes="cc" />
    <path
       sodipodi:nodetypes="cc"
       id="path894"
       d="M 10.15,-0.99999999 V 2.9999999"
       style="fill:none;stroke:#00ff00;stroke-width:0.0999998;stroke-linecap:butt;stroke-linejoin:miter;stroke-miterlimit:4;stroke-dasharray:none;stroke-opacity:1" />
    <path
       style="fill:none;stroke:#00ff00;stroke-width:0.0999998;stroke-linecap:butt;stroke-linejoin:miter;stroke-miterlimit:4;stroke-dasharray:none;stroke-opacity:1"
       d="M 11.7,-0.99999999 V 2.9999999"
       id="path898"
       sodipodi:nodetypes="cc" />
    <path
       style="fill:none;stroke:#00ff00;stroke-width:0.0999999;stroke-linecap:butt;stroke-linejoin:miter;stroke-miterlimit:4;stroke-dasharray:none;stroke-opacity:1"
       d="M 0,-1.0000001 H 28.8"
       id="path900"
       sodipodi:nodetypes="cc" />
    <path
       sodipodi:nodetypes="cc"
       id="path905"
       d="M 12.85,-0.99999999 V 2.9999999"
       style="fill:none;stroke:#00ff00;stroke-width:0.0999998;stroke-linecap:butt;stroke-linejoin:miter;stroke-miterlimit:4;stroke-dasharray:none;stroke-opacity:1" />
    <path
       style="fill:none;stroke:#00ff00;stroke-width:0.0999998;stroke-linecap:butt;stroke-linejoin:miter;stroke-miterlimit:4;stroke-dasharray:none;stroke-opacity:1"
       d="M 14.95,-0.99999999 V 2.9999999"
       id="path907"
       sodipodi:nodetypes="cc" />
    <path
       sodipodi:nodetypes="cc"
       id="path911"
       d="M 16.65,-0.99999999 V 2.9999999"
       style="fill:none;stroke:#00ff00;stroke-width:0.0999998;stroke-linecap:butt;stroke-linejoin:miter;stroke-miterlimit:4;stroke-dasharray:none;stroke-opacity:1" />
    <path
       style="fill:none;stroke:#00ff00;stroke-width:0.0999998;stroke-linecap:butt;stroke-linejoin:miter;stroke-miterlimit:4;stroke-dasharray:none;stroke-opacity:1"
       d="M 17.8,-0.99999999 V 2.9999999"
       id="path913"
       sodipodi:nodetypes="cc" />
    <path
       sodipodi:nodetypes="cc"
       id="path917"
       d="M 18.95,-0.99999999 V 2.9999999"
       style="fill:none;stroke:#00ff00;stroke-width:0.0999998;stroke-linecap:butt;stroke-linejoin:miter;stroke-miterlimit:4;stroke-dasharray:none;stroke-opacity:1" />
    <path
       style="fill:none;stroke:#00ff00;stroke-width:0.0999998;stroke-linecap:butt;stroke-linejoin:miter;stroke-miterlimit:4;stroke-dasharray:none;stroke-opacity:1"
       d="M 20.85,-0.99999999 V 2.9999999"
       id="path919"
       sodipodi:nodetypes="cc" />
    <path
       sodipodi:nodetypes="cc"
       id="path926"
       d="M 22.55,-0.99999999 V 2.9999999"
       style="fill:none;stroke:#00ff00;stroke-width:0.0999998;stroke-linecap:butt;stroke-linejoin:miter;stroke-miterlimit:4;stroke-dasharray:none;stroke-opacity:1" />
    <path
       style="fill:none;stroke:#00ff00;stroke-width:0.0999998;stroke-linecap:butt;stroke-linejoin:miter;stroke-miterlimit:4;stroke-dasharray:none;stroke-opacity:1"
       d="M 24.5,-0.99999999 V 2.9999999"
       id="path928"
       sodipodi:nodetypes="cc" />
    <path
       sodipodi:nodetypes="cc"
       id="path930"
       d="M 26.2,-0.99999999 V 2.9999999"
       style="fill:none;stroke:#00ff00;stroke-width:0.0999998;stroke-linecap:butt;stroke-linejoin:miter;stroke-miterlimit:4;stroke-dasharray:none;stroke-opacity:1" />
    <path
       style="fill:none;stroke:#00ff00;stroke-width:0.0999998;stroke-linecap:butt;stroke-linejoin:miter;stroke-miterlimit:4;stroke-dasharray:none;stroke-opacity:1"
       d="M 27.8,-0.99999999 V 2.9999999"
       id="path932"
       sodipodi:nodetypes="cc" />
  </g>
</svg>
